# xmcd
#
# Track frame offsets:
#	150
#	12877
#	26660
#	39767
#	54292
#	67612
#	81437
#	94980
#	107120
#	120265
#	132732
#	143692
#	156240
#	167492
#	184065
#	202340
#	214530
#	226737
#	238185
#	248402
#	258325
#	275730
#
# Disc length: 3806 seconds
#
# Revision: 0
# Processed by: cddbd v1.4PL0 Copyright (c) Steve Scherf et al.
# Submitted via: audiograbber 1.82.02
#
DISCID=280edc16
DTITLE=John Lee Hooker - House Rent Boogie
DYEAR=1996
DGENRE=
TTITLE0=Mambo Chillun
TTITLE1=Time Is Marching
TTITLE2=Unfriendly Woman
TTITLE3=I'm So Worried Baby
TTITLE4=Baby Lee
TTITLE5=The Road Is So Rough
TTITLE6=Trouble Blues
TTITLE7=Everybody Rockin'
TTITLE8=I'm So Excited
TTITLE9=Crawlin' Black Spider
TTITLE10=Little Fine Woman
TTITLE11=Rosie Mae
TTITLE12=You've Taken My Woman
TTITLE13=Mama You've Got A Daughter
TTITLE14=House Rent Boogie
TTITLE15=I'm A Stranger
TTITLE16=I'm Mad Again
TTITLE17=Hard Hearted Woman
TTITLE18=I Wanna Walk
TTITLE19=Run On
TTITLE20=Blues Before Sunrise
TTITLE21=Onions
EXTD=
EXTT0=
EXTT1=
EXTT2=
EXTT3=
EXTT4=
EXTT5=
EXTT6=
EXTT7=
EXTT8=
EXTT9=
EXTT10=
EXTT11=
EXTT12=
EXTT13=
EXTT14=
EXTT15=
EXTT16=
EXTT17=
EXTT18=
EXTT19=
EXTT20=
EXTT21=
PLAYORDER=
